<svg xmlns="http://www.w3.org/2000/svg" xmlns:xlink="http://www.w3.org/1999/xlink" width="500" zoomAndPan="magnify" viewBox="0 0 375 374.999991" height="500" preserveAspectRatio="xMidYMid meet" version="1.0"><defs><g/><clipPath id="7e70819eb4"><path d="M 136.304688 106.28125 L 193 106.28125 L 193 208 L 136.304688 208 Z M 136.304688 106.28125 " clip-rule="nonzero"/></clipPath><clipPath id="a3ce26ee9e"><path d="M 182 108 L 239.054688 108 L 239.054688 209.03125 L 182 209.03125 Z M 182 108 " clip-rule="nonzero"/></clipPath></defs><rect x="-37.5" width="450" fill="#ffffff" y="-37.499999" height="449.999989" fill-opacity="1"/><rect x="-37.5" width="450" fill="#fff3f3" y="-37.499999" height="449.999989" fill-opacity="1"/><g clip-path="url(#7e70819eb4)"><path fill="#7dcbec" d="M 163.792969 191.757812 C 153.058594 184.214844 146.03125 171.742188 146.03125 157.65625 C 146.03125 134.691406 164.714844 116.007812 187.679688 116.007812 C 189.324219 116.007812 190.945312 116.101562 192.542969 116.289062 L 192.542969 106.507812 C 190.933594 106.355469 189.3125 106.28125 187.679688 106.28125 C 180.746094 106.28125 174.015625 107.640625 167.679688 110.320312 C 161.5625 112.90625 156.066406 116.609375 151.351562 121.328125 C 146.632812 126.042969 142.929688 131.539062 140.34375 137.65625 C 137.664062 143.992188 136.304688 150.722656 136.304688 157.65625 C 136.304688 164.589844 137.664062 171.316406 140.34375 177.652344 C 142.929688 183.773438 146.632812 189.265625 151.351562 193.984375 C 156.066406 198.699219 161.5625 202.402344 167.679688 204.992188 C 169.59375 205.800781 171.542969 206.488281 173.519531 207.054688 L 173.519531 154.292969 L 163.792969 154.292969 L 163.792969 191.757812 " fill-opacity="1" fill-rule="nonzero"/></g><path fill="#3b89a9" d="M 182.816406 184.496094 L 192.542969 184.496094 L 192.542969 130.8125 L 182.816406 130.8125 L 182.816406 184.496094 " fill-opacity="1" fill-rule="nonzero"/><g clip-path="url(#a3ce26ee9e)"><path fill="#08506f" d="M 235.015625 137.65625 C 232.425781 131.539062 228.722656 126.042969 224.003906 121.328125 C 219.289062 116.609375 213.796875 112.90625 207.675781 110.320312 C 205.765625 109.511719 203.816406 108.824219 201.835938 108.253906 L 201.835938 161.019531 L 211.5625 161.019531 L 211.5625 123.554688 C 222.296875 131.09375 229.328125 143.570312 229.328125 157.65625 C 229.328125 180.621094 210.644531 199.304688 187.679688 199.304688 C 186.035156 199.304688 184.410156 199.207031 182.816406 199.019531 L 182.816406 208.804688 C 184.421875 208.953125 186.046875 209.03125 187.679688 209.03125 C 194.613281 209.03125 201.339844 207.671875 207.675781 204.992188 C 213.796875 202.402344 219.289062 198.699219 224.003906 193.984375 C 228.722656 189.265625 232.425781 183.773438 235.015625 177.652344 C 237.695312 171.316406 239.054688 164.589844 239.054688 157.65625 C 239.054688 150.722656 237.695312 143.992188 235.015625 137.65625 " fill-opacity="1" fill-rule="nonzero"/></g><g fill="#000000" fill-opacity="1"><g transform="translate(121.528909, 250.991996)"><g><path d="M 6.25 -3.75 L 13.71875 -3.75 L 13.71875 0 L 1.765625 0 L 1.765625 -17.625 L 6.25 -17.625 Z M 6.25 -3.75 "/></g></g></g><g fill="#000000" fill-opacity="1"><g transform="translate(138.168072, 250.991996)"><g><path d="M 15.5625 -14.09375 L 6.25 -14.09375 L 6.25 -10.59375 L 14.65625 -10.59375 L 14.65625 -7.078125 L 6.25 -7.078125 L 6.25 -3.53125 L 15.828125 -3.53125 L 15.828125 0 L 1.765625 0 L 1.765625 -17.625 L 15.5625 -17.625 Z M 15.5625 -14.09375 "/></g></g></g><g fill="#000000" fill-opacity="1"><g transform="translate(157.67683, 250.991996)"><g><path d="M 11.453125 0 L 6.828125 0 L -0.03125 -17.625 L 4.75 -17.625 L 9.265625 -4.65625 L 13.765625 -17.625 L 18.375 -17.625 Z M 11.453125 0 "/></g></g></g><g fill="#000000" fill-opacity="1"><g transform="translate(178.570036, 250.991996)"><g><path d="M 15.5625 -14.09375 L 6.25 -14.09375 L 6.25 -10.59375 L 14.65625 -10.59375 L 14.65625 -7.078125 L 6.25 -7.078125 L 6.25 -3.53125 L 15.828125 -3.53125 L 15.828125 0 L 1.765625 0 L 1.765625 -17.625 L 15.5625 -17.625 Z M 15.5625 -14.09375 "/></g></g></g><g fill="#000000" fill-opacity="1"><g transform="translate(198.078795, 250.991996)"><g><path d="M 6.25 -3.75 L 13.71875 -3.75 L 13.71875 0 L 1.765625 0 L 1.765625 -17.625 L 6.25 -17.625 Z M 6.25 -3.75 "/></g></g></g><g fill="#000000" fill-opacity="1"><g transform="translate(214.71796, 250.991996)"><g><path d="M 17.625 -17.625 L 17.625 -7.40625 C 17.625 -5.070312 16.898438 -3.21875 15.453125 -1.84375 C 14.015625 -0.476562 12.0625 0.203125 9.59375 0.203125 C 7.101562 0.203125 5.125 -0.476562 3.65625 -1.84375 C 2.1875 -3.21875 1.453125 -5.070312 1.453125 -7.40625 L 1.453125 -17.625 L 5.9375 -17.625 L 5.9375 -7.40625 C 5.9375 -6.226562 6.273438 -5.289062 6.953125 -4.59375 C 7.640625 -3.894531 8.523438 -3.546875 9.609375 -3.546875 C 10.691406 -3.546875 11.554688 -3.890625 12.203125 -4.578125 C 12.847656 -5.265625 13.171875 -6.207031 13.171875 -7.40625 L 13.171875 -17.625 Z M 17.625 -17.625 "/></g></g></g><g fill="#000000" fill-opacity="1"><g transform="translate(236.341147, 250.991996)"><g><path d="M 1.765625 -17.625 L 9.4375 -17.625 C 11.6875 -17.625 13.429688 -17.085938 14.671875 -16.015625 C 15.910156 -14.953125 16.53125 -13.441406 16.53125 -11.484375 C 16.53125 -9.410156 15.910156 -7.800781 14.671875 -6.65625 C 13.429688 -5.519531 11.6875 -4.953125 9.4375 -4.953125 L 6.25 -4.953125 L 6.25 0 L 1.765625 0 Z M 6.25 -14.09375 L 6.25 -8.484375 L 9.21875 -8.484375 C 10.207031 -8.484375 10.96875 -8.722656 11.5 -9.203125 C 12.039062 -9.691406 12.3125 -10.398438 12.3125 -11.328125 C 12.3125 -12.234375 12.039062 -12.921875 11.5 -13.390625 C 10.96875 -13.859375 10.207031 -14.09375 9.21875 -14.09375 Z M 6.25 -14.09375 "/></g></g></g><g fill="#000000" fill-opacity="1"><g transform="translate(138.947785, 268.933372)"><g><path d="M 5.703125 -6.046875 L 2.140625 -6.046875 L 2.140625 -3.984375 L 5.375 -3.984375 L 5.375 -2.921875 L 2.140625 -2.921875 L 2.140625 0 L 0.9375 0 L 0.9375 -7.125 L 5.71875 -7.125 Z M 5.703125 -6.046875 "/></g></g></g><g fill="#000000" fill-opacity="1"><g transform="translate(145.274953, 268.933372)"><g><path d="M 2.140625 0 L 0.9375 0 L 0.9375 -7.125 L 2.140625 -7.125 Z M 2.140625 0 "/></g></g></g><g fill="#000000" fill-opacity="1"><g transform="translate(148.825212, 268.933372)"><g><path d="M 7.109375 0 L 5.9375 0 L 2.140625 -5.109375 L 2.140625 0 L 0.9375 0 L 0.9375 -7.125 L 2.109375 -7.125 L 5.9375 -2 L 5.9375 -7.125 L 7.109375 -7.125 Z M 7.109375 0 "/></g></g></g><g fill="#000000" fill-opacity="1"><g transform="translate(157.35967, 268.933372)"><g><path d="M 5.53125 -1.609375 L 1.9375 -1.609375 L 1.265625 0 L 0.015625 0 L 3.15625 -7.125 L 4.390625 -7.125 L 7.5 0 L 6.21875 0 Z M 5.078125 -2.671875 L 3.734375 -5.84375 L 2.390625 -2.671875 Z M 5.078125 -2.671875 "/></g></g></g><g fill="#000000" fill-opacity="1"><g transform="translate(165.344846, 268.933372)"><g><path d="M 7.109375 0 L 5.9375 0 L 2.140625 -5.109375 L 2.140625 0 L 0.9375 0 L 0.9375 -7.125 L 2.109375 -7.125 L 5.9375 -2 L 5.9375 -7.125 L 7.109375 -7.125 Z M 7.109375 0 "/></g></g></g><g fill="#000000" fill-opacity="1"><g transform="translate(173.879305, 268.933372)"><g><path d="M 4.09375 -7.15625 C 4.59375 -7.15625 5.082031 -7.054688 5.5625 -6.859375 C 6.039062 -6.671875 6.453125 -6.398438 6.796875 -6.046875 L 6.09375 -5.171875 C 5.832031 -5.453125 5.523438 -5.671875 5.171875 -5.828125 C 4.828125 -5.992188 4.472656 -6.078125 4.109375 -6.078125 C 3.398438 -6.078125 2.796875 -5.832031 2.296875 -5.34375 C 1.804688 -4.863281 1.5625 -4.273438 1.5625 -3.578125 C 1.5625 -2.867188 1.804688 -2.269531 2.296875 -1.78125 C 2.796875 -1.300781 3.398438 -1.0625 4.109375 -1.0625 C 4.847656 -1.0625 5.507812 -1.34375 6.09375 -1.90625 L 6.8125 -1.125 C 6.4375 -0.757812 6.003906 -0.472656 5.515625 -0.265625 C 5.035156 -0.0546875 4.546875 0.046875 4.046875 0.046875 C 3.003906 0.046875 2.125 -0.296875 1.40625 -0.984375 C 0.695312 -1.679688 0.34375 -2.546875 0.34375 -3.578125 C 0.34375 -4.585938 0.703125 -5.4375 1.421875 -6.125 C 2.148438 -6.8125 3.039062 -7.15625 4.09375 -7.15625 Z M 4.09375 -7.15625 "/></g></g></g><g fill="#000000" fill-opacity="1"><g transform="translate(181.447437, 268.933372)"><g><path d="M 2.140625 0 L 0.9375 0 L 0.9375 -7.125 L 2.140625 -7.125 Z M 2.140625 0 "/></g></g></g><g fill="#000000" fill-opacity="1"><g transform="translate(184.997698, 268.933372)"><g><path d="M 5.53125 -1.609375 L 1.9375 -1.609375 L 1.265625 0 L 0.015625 0 L 3.15625 -7.125 L 4.390625 -7.125 L 7.5 0 L 6.21875 0 Z M 5.078125 -2.671875 L 3.734375 -5.84375 L 2.390625 -2.671875 Z M 5.078125 -2.671875 "/></g></g></g><g fill="#000000" fill-opacity="1"><g transform="translate(192.982875, 268.933372)"><g><path d="M 2.140625 -1.09375 L 5.21875 -1.09375 L 5.21875 0 L 0.9375 0 L 0.9375 -7.125 L 2.140625 -7.125 Z M 2.140625 -1.09375 "/></g></g></g><g fill="#000000" fill-opacity="1"><g transform="translate(198.892998, 268.933372)"><g/></g></g><g fill="#000000" fill-opacity="1"><g transform="translate(201.995703, 268.933372)"><g><path d="M 5.53125 -1.609375 L 1.9375 -1.609375 L 1.265625 0 L 0.015625 0 L 3.15625 -7.125 L 4.390625 -7.125 L 7.5 0 L 6.21875 0 Z M 5.078125 -2.671875 L 3.734375 -5.84375 L 2.390625 -2.671875 Z M 5.078125 -2.671875 "/></g></g></g><g fill="#000000" fill-opacity="1"><g transform="translate(209.980881, 268.933372)"><g><path d="M 6.984375 -7.125 L 6.984375 -2.953125 C 6.984375 -2.023438 6.707031 -1.289062 6.15625 -0.75 C 5.613281 -0.21875 4.859375 0.046875 3.890625 0.046875 C 2.929688 0.046875 2.175781 -0.21875 1.625 -0.75 C 1.070312 -1.289062 0.796875 -2.023438 0.796875 -2.953125 L 0.796875 -7.125 L 2 -7.125 L 2 -2.953125 C 2 -2.359375 2.164062 -1.890625 2.5 -1.546875 C 2.84375 -1.203125 3.3125 -1.03125 3.90625 -1.03125 C 4.488281 -1.03125 4.945312 -1.195312 5.28125 -1.53125 C 5.613281 -1.875 5.78125 -2.347656 5.78125 -2.953125 L 5.78125 -7.125 Z M 6.984375 -7.125 "/></g></g></g><g fill="#000000" fill-opacity="1"><g transform="translate(218.230531, 268.933372)"><g><path d="M 0.9375 -7.125 L 3.859375 -7.125 C 4.921875 -7.125 5.796875 -6.785156 6.484375 -6.109375 C 7.179688 -5.441406 7.53125 -4.59375 7.53125 -3.5625 C 7.53125 -2.53125 7.179688 -1.675781 6.484375 -1 C 5.785156 -0.332031 4.898438 0 3.828125 0 L 0.9375 0 Z M 2.140625 -6.046875 L 2.140625 -1.078125 L 3.890625 -1.078125 C 4.585938 -1.078125 5.164062 -1.304688 5.625 -1.765625 C 6.09375 -2.234375 6.328125 -2.828125 6.328125 -3.546875 C 6.328125 -4.265625 6.085938 -4.859375 5.609375 -5.328125 C 5.128906 -5.804688 4.535156 -6.046875 3.828125 -6.046875 Z M 2.140625 -6.046875 "/></g></g></g><g fill="#000000" fill-opacity="1"><g transform="translate(226.59207, 268.933372)"><g><path d="M 2.140625 0 L 0.9375 0 L 0.9375 -7.125 L 2.140625 -7.125 Z M 2.140625 0 "/></g></g></g><g fill="#000000" fill-opacity="1"><g transform="translate(230.142331, 268.933372)"><g><path d="M 5.796875 -6.046875 L 3.546875 -6.046875 L 3.546875 0 L 2.34375 0 L 2.34375 -6.046875 L 0.09375 -6.046875 L 0.09375 -7.125 L 5.796875 -7.125 Z M 5.796875 -6.046875 "/></g></g></g></svg>