<svg xmlns="http://www.w3.org/2000/svg" xmlns:xlink="http://www.w3.org/1999/xlink" width="500" zoomAndPan="magnify" viewBox="0 0 375 374.999991" height="500" preserveAspectRatio="xMidYMid meet" version="1.0"><defs><g/></defs><rect x="-37.5" width="450" fill="#ffffff" y="-37.499999" height="449.999989" fill-opacity="1"/><rect x="-37.5" width="450" fill="#000000" y="-37.499999" height="449.999989" fill-opacity="1"/><path fill="#ffde59" d="M 193.621094 110.539062 L 198.257812 105.890625 C 207.371094 96.769531 222.207031 96.542969 231.367188 105.613281 C 238.679688 112.851562 240.203125 123.753906 235.933594 132.519531 C 233.828125 136.828125 234.679688 142 238.070312 145.394531 C 250.839844 132.605469 250.820312 111.789062 238.003906 99.03125 C 225.191406 86.273438 204.386719 86.527344 191.609375 99.320312 L 147.386719 143.605469 L 143.75 139.964844 C 134.480469 130.683594 134.421875 115.519531 143.855469 106.40625 C 151.15625 99.347656 161.953125 98 170.59375 102.359375 C 174.667969 104.417969 179.582031 103.695312 182.804688 100.46875 L 182.917969 100.355469 C 183.0625 100.207031 183.0625 99.96875 182.914062 99.820312 C 170.285156 87.460938 150.054688 87.414062 137.367188 99.679688 C 124.171875 112.429688 124.21875 133.640625 137.1875 146.625 L 181.40625 190.894531 L 176.707031 195.597656 C 167.59375 204.722656 152.761719 204.949219 143.597656 195.878906 C 136.285156 188.640625 134.761719 177.738281 139.035156 168.976562 C 141.136719 164.664062 140.285156 159.492188 136.894531 156.101562 C 124.121094 168.878906 124.144531 189.699219 136.957031 202.457031 C 149.769531 215.214844 170.570312 214.960938 183.351562 202.167969 L 227.636719 157.824219 L 231.285156 161.476562 C 240.398438 170.601562 240.621094 185.457031 231.5625 194.628906 C 224.335938 201.953125 213.445312 203.476562 204.695312 199.199219 C 200.386719 197.09375 195.222656 197.945312 191.835938 201.339844 C 204.605469 214.125 225.394531 214.105469 238.136719 201.273438 C 250.878906 188.445312 250.625 167.617188 237.847656 154.820312 Z M 188.007812 184.277344 L 153.988281 150.21875 L 187.015625 117.152344 L 221.03125 151.210938 Z M 188.007812 184.277344 " fill-opacity="1" fill-rule="nonzero"/><g fill="#ffde59" fill-opacity="1"><g transform="translate(75.824992, 278.342473)"><g><path d="M 17.4375 0.777344 C 25.90625 0.777344 31.078125 -3.523438 31.078125 -10.390625 C 31.078125 -18.492188 23.757812 -20.140625 17.851562 -21.46875 C 13.867188 -22.382812 10.480469 -23.160156 10.480469 -25.679688 C 10.480469 -27.875 12.769531 -28.789062 15.105469 -28.789062 C 18.539062 -28.789062 20.917969 -27.003906 21.742188 -24.03125 L 30.210938 -24.03125 C 29.109375 -31.8125 22.613281 -35.65625 15.289062 -35.65625 C 8.148438 -35.65625 2.335938 -32.222656 2.335938 -24.992188 C 2.335938 -17.300781 9.335938 -15.746094 15.195312 -14.417969 C 19.316406 -13.503906 22.839844 -12.726562 22.839844 -9.976562 C 22.839844 -7.230469 20.1875 -6.085938 17.394531 -6.085938 C 14.234375 -6.085938 11.078125 -7.277344 9.886719 -11.855469 L 1.417969 -11.855469 C 2.058594 -2.058594 10.847656 0.777344 17.4375 0.777344 Z M 17.4375 0.777344 "/></g></g></g><g fill="#ffde59" fill-opacity="1"><g transform="translate(108.407326, 278.342473)"><g><path d="M 15.105469 0.550781 C 23.34375 0.550781 28.746094 -4.898438 28.746094 -13.136719 C 28.746094 -21.054688 23.253906 -26.503906 15.105469 -26.503906 C 6.957031 -26.503906 1.464844 -21.101562 1.464844 -13.136719 C 1.464844 -4.851562 7.003906 0.550781 15.105469 0.550781 Z M 15.105469 -6.042969 C 11.671875 -6.042969 9.382812 -8.789062 9.382812 -13.136719 C 9.382812 -17.210938 11.671875 -19.957031 15.105469 -19.957031 C 18.582031 -19.957031 20.734375 -17.164062 20.734375 -13.136719 C 20.734375 -8.878906 18.582031 -6.042969 15.105469 -6.042969 Z M 15.105469 -6.042969 "/></g></g></g><g fill="#ffde59" fill-opacity="1"><g transform="translate(138.610045, 278.342473)"><g><path d="M 13.503906 0 L 13.503906 -6.226562 L 11.582031 -6.226562 C 10.984375 -6.226562 10.070312 -6.40625 10.070312 -7.828125 L 10.070312 -34.925781 L 2.378906 -34.925781 L 2.378906 -5.171875 C 2.378906 -1.875 4.53125 0 8.332031 0 Z M 13.503906 0 "/></g></g></g><g fill="#ffde59" fill-opacity="1"><g transform="translate(153.162271, 278.342473)"><g><path d="M 6.363281 -27.738281 C 8.742188 -27.738281 10.710938 -29.203125 10.710938 -31.675781 C 10.710938 -34.101562 8.742188 -35.65625 6.363281 -35.65625 C 3.980469 -35.65625 2.015625 -34.101562 2.015625 -31.675781 C 2.015625 -29.203125 3.980469 -27.738281 6.363281 -27.738281 Z M 10.207031 0 L 10.207031 -25.953125 L 2.515625 -25.953125 L 2.515625 0 Z M 10.207031 0 "/></g></g></g><g fill="#ffde59" fill-opacity="1"><g transform="translate(165.884026, 278.342473)"><g><path d="M 12.863281 0.550781 C 15.609375 0.550781 17.757812 -0.183594 19.5 -2.792969 L 19.5 0 L 27.1875 0 L 27.1875 -34.925781 L 19.5 -34.925781 L 19.5 -23.160156 C 17.757812 -25.769531 15.609375 -26.503906 12.863281 -26.503906 C 6.226562 -26.503906 1.554688 -20.917969 1.554688 -13 C 1.554688 -5.035156 6.226562 0.550781 12.863281 0.550781 Z M 15.011719 -5.996094 C 11.582031 -5.996094 9.335938 -8.878906 9.335938 -13 C 9.335938 -17.074219 11.582031 -19.957031 15.011719 -19.957031 C 18.402344 -19.957031 20.6875 -17.164062 20.6875 -13 C 20.6875 -8.789062 18.402344 -5.996094 15.011719 -5.996094 Z M 15.011719 -5.996094 "/></g></g></g><g fill="#ffffff" fill-opacity="1"><g transform="translate(195.590609, 278.342473)"><g><path d="M 10.023438 0.550781 C 12.175781 0.550781 14.234375 0.230469 15.746094 -0.824219 C 16.570312 -1.375 17.164062 -2.152344 17.578125 -3.160156 L 17.578125 0 L 25.265625 0 L 25.265625 -12.3125 C 25.265625 -17.117188 25.265625 -21.191406 22.0625 -23.9375 C 20.003906 -25.722656 17.027344 -26.503906 14.007812 -26.503906 C 8.789062 -26.503906 3.433594 -23.800781 2.472656 -17.300781 L 10.117188 -17.300781 C 10.480469 -19.5 12.175781 -20.734375 13.960938 -20.734375 C 15.105469 -20.734375 15.972656 -20.460938 16.570312 -19.820312 C 17.164062 -19.132812 17.53125 -18.125 17.621094 -16.796875 L 10.894531 -15.609375 C 8.925781 -15.242188 6.589844 -14.738281 4.761719 -13.546875 C 2.882812 -12.3125 1.511719 -10.390625 1.511719 -7.277344 C 1.511719 -2.058594 5.355469 0.550781 10.023438 0.550781 Z M 12.265625 -5.265625 C 10.621094 -5.265625 9.199219 -5.90625 9.199219 -7.550781 C 9.199219 -8.285156 9.476562 -8.789062 9.886719 -9.199219 C 10.527344 -9.796875 11.351562 -10.117188 13.046875 -10.4375 L 17.757812 -11.351562 C 17.667969 -8.515625 17.164062 -6.867188 15.058594 -5.90625 C 14.144531 -5.492188 13.136719 -5.265625 12.265625 -5.265625 Z M 12.265625 -5.265625 "/></g></g></g><g fill="#ffffff" fill-opacity="1"><g transform="translate(223.093393, 278.342473)"><g><path d="M 10.207031 0 L 10.207031 -10.941406 C 10.207031 -14.464844 10.800781 -16.523438 12.128906 -17.804688 C 13.046875 -18.675781 14.371094 -19.179688 16.523438 -19.179688 L 17.988281 -19.179688 L 17.988281 -26.503906 L 16.84375 -26.503906 C 14.097656 -26.503906 11.945312 -25.769531 10.207031 -23.160156 L 10.207031 -25.953125 L 2.515625 -25.953125 L 2.515625 0 Z M 10.207031 0 "/></g></g></g><g fill="#ffffff" fill-opacity="1"><g transform="translate(241.855694, 278.342473)"><g><path d="M 6.363281 -27.738281 C 8.742188 -27.738281 10.710938 -29.203125 10.710938 -31.675781 C 10.710938 -34.101562 8.742188 -35.65625 6.363281 -35.65625 C 3.980469 -35.65625 2.015625 -34.101562 2.015625 -31.675781 C 2.015625 -29.203125 3.980469 -27.738281 6.363281 -27.738281 Z M 10.207031 0 L 10.207031 -25.953125 L 2.515625 -25.953125 L 2.515625 0 Z M 10.207031 0 "/></g></g></g><g fill="#ffffff" fill-opacity="1"><g transform="translate(254.577449, 278.342473)"><g><path d="M 16.660156 0 L 16.660156 -6.226562 L 13.777344 -6.226562 C 12.449219 -6.226562 12.222656 -7.050781 12.222656 -7.78125 L 12.222656 -19.957031 L 16.707031 -19.957031 L 16.707031 -25.953125 L 12.222656 -25.953125 L 12.222656 -34.925781 L 4.53125 -34.925781 L 4.53125 -25.953125 L 0.960938 -25.953125 L 0.960938 -19.957031 L 4.53125 -19.957031 L 4.53125 -5.171875 C 4.53125 -1.875 6.730469 0 10.527344 0 Z M 16.660156 0 "/></g></g></g><g fill="#ffffff" fill-opacity="1"><g transform="translate(272.790605, 278.342473)"><g><path d="M 7.78125 8.972656 C 12.769531 8.972656 15.011719 6.820312 16.753906 1.648438 L 25.953125 -25.953125 L 17.667969 -25.953125 L 13.457031 -7.550781 L 8.558594 -25.953125 L 0.320312 -25.953125 L 9.519531 0.367188 L 9.292969 0.914062 C 8.652344 2.472656 7.550781 2.699219 6.269531 2.699219 L 3.160156 2.699219 L 3.160156 8.972656 Z M 7.78125 8.972656 "/></g></g></g></svg>