<svg xmlns="http://www.w3.org/2000/svg" xmlns:xlink="http://www.w3.org/1999/xlink" width="500" zoomAndPan="magnify" viewBox="0 0 375 374.999991" height="500" preserveAspectRatio="xMidYMid meet" version="1.0"><defs><g/><clipPath id="8689704b16"><path d="M 130.960938 67.402344 L 244.210938 67.402344 L 244.210938 217.402344 L 130.960938 217.402344 Z M 130.960938 67.402344 " clip-rule="nonzero"/></clipPath><clipPath id="768ac432c5"><path d="M 191.445312 80.863281 L 237.195312 126.542969 C 246.550781 135.878906 246.550781 151.113281 237.195312 160.449219 L 193.636719 203.941406 L 187.347656 197.664062 L 180.382812 190.710938 L 175.328125 185.664062 L 172.648438 188.335938 L 170.273438 190.710938 L 169.039062 191.941406 L 162.1875 185.101562 L 162.523438 184.765625 L 168.925781 178.375 L 165.441406 174.898438 L 188.402344 151.972656 C 193.078125 147.304688 193.078125 139.6875 188.402344 135.019531 L 163.253906 109.910156 L 166.734375 106.433594 L 160.332031 100.039062 L 159.996094 99.703125 L 166.847656 92.863281 L 168.082031 94.09375 L 170.457031 96.46875 L 173.136719 99.140625 L 178.191406 94.09375 L 185.15625 87.144531 Z M 164.265625 214.988281 L 167.519531 211.738281 L 164.265625 208.484375 L 161.007812 211.738281 Z M 149.550781 205.570312 L 152.019531 203.101562 L 149.550781 200.632812 L 147.078125 203.101562 Z M 152.976562 213.699219 L 156.0625 210.617188 L 152.976562 207.53125 L 149.886719 210.617188 Z M 141.070312 207.757812 L 143.371094 205.457031 L 141.070312 203.15625 L 138.765625 205.457031 Z M 134.105469 203.71875 L 135.058594 202.765625 L 134.105469 201.8125 L 133.152344 202.765625 Z M 140.84375 200.019531 L 142.25 198.617188 L 140.84375 197.214844 L 139.441406 198.617188 L 140.84375 200.015625 Z M 147.640625 194.019531 L 149.71875 191.941406 L 147.640625 189.867188 L 145.5625 191.941406 Z M 153.089844 198.894531 L 155.335938 196.652344 L 153.089844 194.410156 L 150.839844 196.652344 Z M 159.660156 183.925781 L 163.308594 180.28125 L 159.660156 176.636719 L 156.007812 180.28125 Z M 155.164062 189.644531 L 157.636719 187.175781 L 155.164062 184.710938 L 152.695312 187.175781 Z M 161.175781 197.214844 L 165.273438 193.121094 L 161.175781 189.027344 L 157.074219 193.121094 Z M 158.3125 206.972656 L 161.792969 203.492188 L 158.3125 200.015625 L 154.828125 203.492188 Z M 164.824219 203.492188 L 167.746094 200.578125 L 164.824219 197.664062 L 161.90625 200.578125 Z M 171.453125 198 L 175.101562 194.355469 L 171.453125 190.710938 L 167.800781 194.355469 Z M 172.914062 210 L 177.742188 205.175781 L 172.914062 200.355469 L 168.082031 205.175781 Z M 176.730469 217.402344 L 181.785156 212.355469 L 176.730469 207.308594 L 171.675781 212.355469 Z M 183.527344 209.71875 L 186.785156 206.464844 L 183.527344 203.214844 L 180.269531 206.464844 Z M 174.09375 196.988281 L 181.054688 203.941406 L 187.347656 197.664062 L 194.308594 190.710938 L 187.347656 183.757812 L 180.382812 190.710938 L 177.703125 193.382812 L 175.328125 195.757812 Z M 162.074219 69.816406 L 165.332031 73.066406 L 162.074219 76.320312 L 158.816406 73.066406 Z M 147.359375 79.238281 L 149.832031 81.703125 L 147.359375 84.171875 L 144.886719 81.703125 Z M 150.785156 71.105469 L 153.875 74.1875 L 150.785156 77.273438 L 147.695312 74.1875 Z M 138.878906 77.050781 L 141.183594 79.347656 L 138.878906 81.648438 L 136.578125 79.347656 Z M 131.914062 81.085938 L 132.871094 82.039062 L 131.914062 82.992188 L 130.960938 82.039062 Z M 138.65625 84.789062 L 140.058594 86.1875 L 138.65625 87.589844 L 137.25 86.1875 Z M 145.449219 90.789062 L 147.527344 92.863281 L 145.449219 94.9375 L 143.371094 92.859375 Z M 150.898438 85.90625 L 153.144531 88.152344 L 150.898438 90.394531 L 148.652344 88.152344 Z M 157.46875 100.878906 L 161.121094 104.523438 L 157.46875 108.167969 L 153.816406 104.523438 Z M 152.976562 95.160156 L 155.449219 97.628906 L 152.976562 100.09375 L 150.503906 97.628906 Z M 158.984375 87.589844 L 163.085938 91.683594 L 158.984375 95.777344 L 154.886719 91.683594 Z M 156.121094 77.835938 L 159.601562 81.3125 L 156.121094 84.789062 L 152.640625 81.3125 Z M 162.636719 81.3125 L 165.554688 84.226562 L 162.636719 87.140625 L 159.714844 84.226562 Z M 169.261719 86.804688 L 172.914062 90.453125 L 169.261719 94.09375 L 165.613281 90.453125 Z M 170.722656 74.804688 L 175.550781 79.628906 L 170.722656 84.449219 L 165.894531 79.628906 Z M 174.542969 67.40625 L 179.597656 72.449219 L 174.542969 77.5 L 169.488281 72.449219 Z M 181.335938 75.085938 L 184.59375 78.339844 L 181.335938 81.589844 L 178.078125 78.339844 Z M 171.902344 87.816406 L 178.867188 80.863281 L 185.15625 87.140625 L 192.121094 94.09375 L 185.15625 101.046875 L 178.191406 94.09375 L 175.511719 91.421875 L 173.136719 89.050781 Z M 171.902344 87.816406 " clip-rule="evenodd"/></clipPath><linearGradient x1="-75.193376" gradientTransform="matrix(0.0123752, 0, 0, 0.012356, 130.961167, 67.405058)" y1="5369.775325" x2="9244.315473" gradientUnits="userSpaceOnUse" y2="5500.275598" id="875e7eae72"><stop stop-opacity="1" stop-color="rgb(66.494751%, 91.622925%, 8.375549%)" offset="0"/><stop stop-opacity="1" stop-color="rgb(65.843201%, 91.459656%, 8.537292%)" offset="0.00390625"/><stop stop-opacity="1" stop-color="rgb(65.19165%, 91.297913%, 8.700562%)" offset="0.0078125"/><stop stop-opacity="1" stop-color="rgb(64.5401%, 91.134644%, 8.863831%)" offset="0.0117188"/><stop stop-opacity="1" stop-color="rgb(63.88855%, 90.971375%, 9.0271%)" offset="0.015625"/><stop stop-opacity="1" stop-color="rgb(63.237%, 90.808105%, 9.188843%)" offset="0.0195312"/><stop stop-opacity="1" stop-color="rgb(62.585449%, 90.646362%, 9.352112%)" offset="0.0234375"/><stop stop-opacity="1" stop-color="rgb(61.933899%, 90.483093%, 9.515381%)" offset="0.0273438"/><stop stop-opacity="1" stop-color="rgb(61.283875%, 90.319824%, 9.67865%)" offset="0.03125"/><stop stop-opacity="1" stop-color="rgb(60.632324%, 90.156555%, 9.840393%)" offset="0.0351563"/><stop stop-opacity="1" stop-color="rgb(59.980774%, 89.994812%, 10.003662%)" offset="0.0390625"/><stop stop-opacity="1" stop-color="rgb(59.329224%, 89.831543%, 10.166931%)" offset="0.0429687"/><stop stop-opacity="1" stop-color="rgb(58.677673%, 89.668274%, 10.3302%)" offset="0.046875"/><stop stop-opacity="1" stop-color="rgb(58.026123%, 89.505005%, 10.491943%)" offset="0.0507813"/><stop stop-opacity="1" stop-color="rgb(57.374573%, 89.343262%, 10.655212%)" offset="0.0546875"/><stop stop-opacity="1" stop-color="rgb(56.723022%, 89.179993%, 10.818481%)" offset="0.0585938"/><stop stop-opacity="1" stop-color="rgb(56.071472%, 89.016724%, 10.98175%)" offset="0.0625"/><stop stop-opacity="1" stop-color="rgb(55.419922%, 88.853455%, 11.143494%)" offset="0.0664062"/><stop stop-opacity="1" stop-color="rgb(54.768372%, 88.691711%, 11.306763%)" offset="0.0703125"/><stop stop-opacity="1" stop-color="rgb(54.116821%, 88.528442%, 11.470032%)" offset="0.0742187"/><stop stop-opacity="1" stop-color="rgb(53.465271%, 88.365173%, 11.633301%)" offset="0.078125"/><stop stop-opacity="1" stop-color="rgb(52.813721%, 88.201904%, 11.795044%)" offset="0.0820313"/><stop stop-opacity="1" stop-color="rgb(52.16217%, 88.040161%, 11.958313%)" offset="0.0859375"/><stop stop-opacity="1" stop-color="rgb(51.51062%, 87.876892%, 12.121582%)" offset="0.0898438"/><stop stop-opacity="1" stop-color="rgb(50.85907%, 87.713623%, 12.284851%)" offset="0.09375"/><stop stop-opacity="1" stop-color="rgb(50.20752%, 87.550354%, 12.446594%)" offset="0.0976563"/><stop stop-opacity="1" stop-color="rgb(49.555969%, 87.388611%, 12.609863%)" offset="0.101563"/><stop stop-opacity="1" stop-color="rgb(48.904419%, 87.225342%, 12.773132%)" offset="0.105469"/><stop stop-opacity="1" stop-color="rgb(48.252869%, 87.062073%, 12.936401%)" offset="0.109375"/><stop stop-opacity="1" stop-color="rgb(47.601318%, 86.898804%, 13.098145%)" offset="0.113281"/><stop stop-opacity="1" stop-color="rgb(46.949768%, 86.737061%, 13.261414%)" offset="0.117188"/><stop stop-opacity="1" stop-color="rgb(46.298218%, 86.573792%, 13.424683%)" offset="0.121094"/><stop stop-opacity="1" stop-color="rgb(45.646667%, 86.410522%, 13.587952%)" offset="0.125"/><stop stop-opacity="1" stop-color="rgb(44.995117%, 86.247253%, 13.749695%)" offset="0.128906"/><stop stop-opacity="1" stop-color="rgb(44.343567%, 86.08551%, 13.912964%)" offset="0.132812"/><stop stop-opacity="1" stop-color="rgb(43.692017%, 85.922241%, 14.076233%)" offset="0.136719"/><stop stop-opacity="1" stop-color="rgb(43.040466%, 85.758972%, 14.239502%)" offset="0.140625"/><stop stop-opacity="1" stop-color="rgb(42.388916%, 85.595703%, 14.401245%)" offset="0.144531"/><stop stop-opacity="1" stop-color="rgb(41.737366%, 85.43396%, 14.564514%)" offset="0.148437"/><stop stop-opacity="1" stop-color="rgb(41.085815%, 85.270691%, 14.726257%)" offset="0.152344"/><stop stop-opacity="1" stop-color="rgb(40.435791%, 85.108948%, 14.889526%)" offset="0.15625"/><stop stop-opacity="1" stop-color="rgb(39.784241%, 84.945679%, 15.052795%)" offset="0.160156"/><stop stop-opacity="1" stop-color="rgb(39.13269%, 84.78241%, 15.216064%)" offset="0.164063"/><stop stop-opacity="1" stop-color="rgb(38.48114%, 84.619141%, 15.377808%)" offset="0.167969"/><stop stop-opacity="1" stop-color="rgb(37.82959%, 84.457397%, 15.541077%)" offset="0.171875"/><stop stop-opacity="1" stop-color="rgb(37.17804%, 84.294128%, 15.704346%)" offset="0.175781"/><stop stop-opacity="1" stop-color="rgb(36.526489%, 84.130859%, 15.867615%)" offset="0.179687"/><stop stop-opacity="1" stop-color="rgb(35.874939%, 83.96759%, 16.029358%)" offset="0.183594"/><stop stop-opacity="1" stop-color="rgb(35.223389%, 83.805847%, 16.192627%)" offset="0.1875"/><stop stop-opacity="1" stop-color="rgb(34.571838%, 83.642578%, 16.355896%)" offset="0.191406"/><stop stop-opacity="1" stop-color="rgb(33.920288%, 83.479309%, 16.519165%)" offset="0.195312"/><stop stop-opacity="1" stop-color="rgb(33.268738%, 83.31604%, 16.680908%)" offset="0.199219"/><stop stop-opacity="1" stop-color="rgb(32.617188%, 83.154297%, 16.844177%)" offset="0.203125"/><stop stop-opacity="1" stop-color="rgb(31.965637%, 82.991028%, 17.007446%)" offset="0.207031"/><stop stop-opacity="1" stop-color="rgb(31.314087%, 82.827759%, 17.170715%)" offset="0.210938"/><stop stop-opacity="1" stop-color="rgb(30.662537%, 82.66449%, 17.332458%)" offset="0.214844"/><stop stop-opacity="1" stop-color="rgb(30.010986%, 82.502747%, 17.495728%)" offset="0.21875"/><stop stop-opacity="1" stop-color="rgb(29.359436%, 82.339478%, 17.658997%)" offset="0.222656"/><stop stop-opacity="1" stop-color="rgb(28.707886%, 82.176208%, 17.822266%)" offset="0.226562"/><stop stop-opacity="1" stop-color="rgb(28.056335%, 82.012939%, 17.984009%)" offset="0.230469"/><stop stop-opacity="1" stop-color="rgb(27.404785%, 81.851196%, 18.147278%)" offset="0.234375"/><stop stop-opacity="1" stop-color="rgb(26.753235%, 81.687927%, 18.310547%)" offset="0.238281"/><stop stop-opacity="1" stop-color="rgb(26.101685%, 81.524658%, 18.473816%)" offset="0.242187"/><stop stop-opacity="1" stop-color="rgb(25.450134%, 81.361389%, 18.635559%)" offset="0.246094"/><stop stop-opacity="1" stop-color="rgb(24.798584%, 81.199646%, 18.798828%)" offset="0.25"/><stop stop-opacity="1" stop-color="rgb(24.147034%, 81.036377%, 18.962097%)" offset="0.253906"/><stop stop-opacity="1" stop-color="rgb(23.495483%, 80.873108%, 19.125366%)" offset="0.257813"/><stop stop-opacity="1" stop-color="rgb(22.843933%, 80.709839%, 19.287109%)" offset="0.261719"/><stop stop-opacity="1" stop-color="rgb(22.192383%, 80.548096%, 19.450378%)" offset="0.265625"/><stop stop-opacity="1" stop-color="rgb(21.540833%, 80.384827%, 19.613647%)" offset="0.269531"/><stop stop-opacity="1" stop-color="rgb(20.889282%, 80.221558%, 19.776917%)" offset="0.273438"/><stop stop-opacity="1" stop-color="rgb(20.410156%, 80.075073%, 19.999695%)" offset="0.277344"/><stop stop-opacity="1" stop-color="rgb(19.93103%, 79.928589%, 20.222473%)" offset="0.28125"/><stop stop-opacity="1" stop-color="rgb(19.821167%, 79.8172%, 20.576477%)" offset="0.285156"/><stop stop-opacity="1" stop-color="rgb(19.71283%, 79.707336%, 20.930481%)" offset="0.289062"/><stop stop-opacity="1" stop-color="rgb(19.604492%, 79.595947%, 21.282959%)" offset="0.292969"/><stop stop-opacity="1" stop-color="rgb(19.496155%, 79.486084%, 21.636963%)" offset="0.296875"/><stop stop-opacity="1" stop-color="rgb(19.387817%, 79.374695%, 21.989441%)" offset="0.300781"/><stop stop-opacity="1" stop-color="rgb(19.27948%, 79.264832%, 22.343445%)" offset="0.304688"/><stop stop-opacity="1" stop-color="rgb(19.169617%, 79.153442%, 22.695923%)" offset="0.308594"/><stop stop-opacity="1" stop-color="rgb(19.061279%, 79.043579%, 23.049927%)" offset="0.3125"/><stop stop-opacity="1" stop-color="rgb(18.952942%, 78.93219%, 23.403931%)" offset="0.316406"/><stop stop-opacity="1" stop-color="rgb(18.844604%, 78.822327%, 23.757935%)" offset="0.320312"/><stop stop-opacity="1" stop-color="rgb(18.736267%, 78.710938%, 24.110413%)" offset="0.324219"/><stop stop-opacity="1" stop-color="rgb(18.62793%, 78.599548%, 24.464417%)" offset="0.328125"/><stop stop-opacity="1" stop-color="rgb(18.518066%, 78.488159%, 24.816895%)" offset="0.332031"/><stop stop-opacity="1" stop-color="rgb(18.409729%, 78.378296%, 25.170898%)" offset="0.335937"/><stop stop-opacity="1" stop-color="rgb(18.301392%, 78.266907%, 25.523376%)" offset="0.339844"/><stop stop-opacity="1" stop-color="rgb(18.193054%, 78.157043%, 25.87738%)" offset="0.34375"/><stop stop-opacity="1" stop-color="rgb(18.084717%, 78.045654%, 26.231384%)" offset="0.347656"/><stop stop-opacity="1" stop-color="rgb(17.976379%, 77.935791%, 26.585388%)" offset="0.351563"/><stop stop-opacity="1" stop-color="rgb(17.866516%, 77.824402%, 26.937866%)" offset="0.355469"/><stop stop-opacity="1" stop-color="rgb(17.758179%, 77.714539%, 27.29187%)" offset="0.359375"/><stop stop-opacity="1" stop-color="rgb(17.649841%, 77.603149%, 27.644348%)" offset="0.363281"/><stop stop-opacity="1" stop-color="rgb(17.541504%, 77.493286%, 27.998352%)" offset="0.367188"/><stop stop-opacity="1" stop-color="rgb(17.433167%, 77.381897%, 28.35083%)" offset="0.371094"/><stop stop-opacity="1" stop-color="rgb(17.324829%, 77.270508%, 28.704834%)" offset="0.375"/><stop stop-opacity="1" stop-color="rgb(17.214966%, 77.159119%, 29.058838%)" offset="0.378906"/><stop stop-opacity="1" stop-color="rgb(17.106628%, 77.049255%, 29.412842%)" offset="0.382812"/><stop stop-opacity="1" stop-color="rgb(16.998291%, 76.937866%, 29.76532%)" offset="0.386719"/><stop stop-opacity="1" stop-color="rgb(16.889954%, 76.828003%, 30.119324%)" offset="0.390625"/><stop stop-opacity="1" stop-color="rgb(16.781616%, 76.716614%, 30.471802%)" offset="0.394531"/><stop stop-opacity="1" stop-color="rgb(16.673279%, 76.60675%, 30.825806%)" offset="0.398437"/><stop stop-opacity="1" stop-color="rgb(16.564941%, 76.495361%, 31.178284%)" offset="0.402344"/><stop stop-opacity="1" stop-color="rgb(16.456604%, 76.385498%, 31.532288%)" offset="0.40625"/><stop stop-opacity="1" stop-color="rgb(16.346741%, 76.274109%, 31.886292%)" offset="0.410156"/><stop stop-opacity="1" stop-color="rgb(16.238403%, 76.16272%, 32.240295%)" offset="0.414062"/><stop stop-opacity="1" stop-color="rgb(16.130066%, 76.051331%, 32.592773%)" offset="0.417969"/><stop stop-opacity="1" stop-color="rgb(16.021729%, 75.941467%, 32.946777%)" offset="0.421875"/><stop stop-opacity="1" stop-color="rgb(15.913391%, 75.830078%, 33.299255%)" offset="0.425781"/><stop stop-opacity="1" stop-color="rgb(15.805054%, 75.720215%, 33.653259%)" offset="0.429688"/><stop stop-opacity="1" stop-color="rgb(15.69519%, 75.608826%, 34.005737%)" offset="0.433594"/><stop stop-opacity="1" stop-color="rgb(15.586853%, 75.498962%, 34.359741%)" offset="0.4375"/><stop stop-opacity="1" stop-color="rgb(15.478516%, 75.387573%, 34.713745%)" offset="0.441406"/><stop stop-opacity="1" stop-color="rgb(15.370178%, 75.27771%, 35.067749%)" offset="0.445312"/><stop stop-opacity="1" stop-color="rgb(15.261841%, 75.166321%, 35.420227%)" offset="0.449219"/><stop stop-opacity="1" stop-color="rgb(15.153503%, 75.056458%, 35.774231%)" offset="0.453125"/><stop stop-opacity="1" stop-color="rgb(15.04364%, 74.945068%, 36.126709%)" offset="0.457031"/><stop stop-opacity="1" stop-color="rgb(14.935303%, 74.833679%, 36.480713%)" offset="0.460938"/><stop stop-opacity="1" stop-color="rgb(14.826965%, 74.72229%, 36.834717%)" offset="0.464844"/><stop stop-opacity="1" stop-color="rgb(14.718628%, 74.612427%, 37.188721%)" offset="0.46875"/><stop stop-opacity="1" stop-color="rgb(14.610291%, 74.501038%, 37.541199%)" offset="0.472656"/><stop stop-opacity="1" stop-color="rgb(14.501953%, 74.391174%, 37.895203%)" offset="0.476562"/><stop stop-opacity="1" stop-color="rgb(14.39209%, 74.279785%, 38.247681%)" offset="0.480469"/><stop stop-opacity="1" stop-color="rgb(14.283752%, 74.169922%, 38.601685%)" offset="0.484375"/><stop stop-opacity="1" stop-color="rgb(14.175415%, 74.058533%, 38.954163%)" offset="0.488281"/><stop stop-opacity="1" stop-color="rgb(14.067078%, 73.948669%, 39.308167%)" offset="0.492187"/><stop stop-opacity="1" stop-color="rgb(13.95874%, 73.83728%, 39.66217%)" offset="0.496094"/><stop stop-opacity="1" stop-color="rgb(13.850403%, 73.727417%, 40.016174%)" offset="0.5"/><stop stop-opacity="1" stop-color="rgb(13.74054%, 73.616028%, 40.368652%)" offset="0.503906"/><stop stop-opacity="1" stop-color="rgb(13.632202%, 73.504639%, 40.722656%)" offset="0.507812"/><stop stop-opacity="1" stop-color="rgb(13.523865%, 73.39325%, 41.075134%)" offset="0.511719"/><stop stop-opacity="1" stop-color="rgb(13.415527%, 73.283386%, 41.429138%)" offset="0.515625"/><stop stop-opacity="1" stop-color="rgb(13.30719%, 73.171997%, 41.781616%)" offset="0.519531"/><stop stop-opacity="1" stop-color="rgb(13.198853%, 73.062134%, 42.13562%)" offset="0.523437"/><stop stop-opacity="1" stop-color="rgb(13.088989%, 72.950745%, 42.489624%)" offset="0.527344"/><stop stop-opacity="1" stop-color="rgb(12.980652%, 72.840881%, 42.843628%)" offset="0.53125"/><stop stop-opacity="1" stop-color="rgb(12.872314%, 72.729492%, 43.196106%)" offset="0.535156"/><stop stop-opacity="1" stop-color="rgb(12.763977%, 72.619629%, 43.55011%)" offset="0.539062"/><stop stop-opacity="1" stop-color="rgb(12.65564%, 72.50824%, 43.902588%)" offset="0.542969"/><stop stop-opacity="1" stop-color="rgb(12.547302%, 72.398376%, 44.256592%)" offset="0.546875"/><stop stop-opacity="1" stop-color="rgb(12.437439%, 72.286987%, 44.60907%)" offset="0.550781"/><stop stop-opacity="1" stop-color="rgb(12.329102%, 72.175598%, 44.963074%)" offset="0.554687"/><stop stop-opacity="1" stop-color="rgb(12.220764%, 72.064209%, 45.317078%)" offset="0.558594"/><stop stop-opacity="1" stop-color="rgb(12.112427%, 71.954346%, 45.671082%)" offset="0.5625"/><stop stop-opacity="1" stop-color="rgb(12.004089%, 71.842957%, 46.02356%)" offset="0.566406"/><stop stop-opacity="1" stop-color="rgb(11.895752%, 71.733093%, 46.377563%)" offset="0.570312"/><stop stop-opacity="1" stop-color="rgb(11.785889%, 71.621704%, 46.730042%)" offset="0.574219"/><stop stop-opacity="1" stop-color="rgb(11.677551%, 71.511841%, 47.084045%)" offset="0.578125"/><stop stop-opacity="1" stop-color="rgb(11.569214%, 71.400452%, 47.436523%)" offset="0.582031"/><stop stop-opacity="1" stop-color="rgb(11.460876%, 71.290588%, 47.790527%)" offset="0.585938"/><stop stop-opacity="1" stop-color="rgb(11.352539%, 71.179199%, 48.144531%)" offset="0.589844"/><stop stop-opacity="1" stop-color="rgb(11.244202%, 71.069336%, 48.498535%)" offset="0.59375"/><stop stop-opacity="1" stop-color="rgb(11.134338%, 70.957947%, 48.851013%)" offset="0.597656"/><stop stop-opacity="1" stop-color="rgb(11.026001%, 70.846558%, 49.205017%)" offset="0.601562"/><stop stop-opacity="1" stop-color="rgb(10.917664%, 70.735168%, 49.557495%)" offset="0.605469"/><stop stop-opacity="1" stop-color="rgb(10.809326%, 70.625305%, 49.911499%)" offset="0.609375"/><stop stop-opacity="1" stop-color="rgb(10.700989%, 70.513916%, 50.263977%)" offset="0.613281"/><stop stop-opacity="1" stop-color="rgb(10.592651%, 70.404053%, 50.617981%)" offset="0.617187"/><stop stop-opacity="1" stop-color="rgb(10.482788%, 70.292664%, 50.971985%)" offset="0.621094"/><stop stop-opacity="1" stop-color="rgb(10.374451%, 70.1828%, 51.325989%)" offset="0.625"/><stop stop-opacity="1" stop-color="rgb(10.266113%, 70.071411%, 51.678467%)" offset="0.628906"/><stop stop-opacity="1" stop-color="rgb(10.157776%, 69.961548%, 52.032471%)" offset="0.632812"/><stop stop-opacity="1" stop-color="rgb(10.049438%, 69.850159%, 52.384949%)" offset="0.636719"/><stop stop-opacity="1" stop-color="rgb(9.941101%, 69.740295%, 52.738953%)" offset="0.640625"/><stop stop-opacity="1" stop-color="rgb(9.832764%, 69.628906%, 53.092957%)" offset="0.644531"/><stop stop-opacity="1" stop-color="rgb(9.724426%, 69.517517%, 53.44696%)" offset="0.648438"/><stop stop-opacity="1" stop-color="rgb(9.614563%, 69.406128%, 53.799438%)" offset="0.652344"/><stop stop-opacity="1" stop-color="rgb(9.506226%, 69.296265%, 54.153442%)" offset="0.65625"/><stop stop-opacity="1" stop-color="rgb(9.397888%, 69.184875%, 54.50592%)" offset="0.660156"/><stop stop-opacity="1" stop-color="rgb(9.289551%, 69.075012%, 54.859924%)" offset="0.664062"/><stop stop-opacity="1" stop-color="rgb(9.181213%, 68.963623%, 55.212402%)" offset="0.667969"/><stop stop-opacity="1" stop-color="rgb(9.072876%, 68.85376%, 55.566406%)" offset="0.671875"/><stop stop-opacity="1" stop-color="rgb(8.963013%, 68.742371%, 55.92041%)" offset="0.675781"/><stop stop-opacity="1" stop-color="rgb(8.854675%, 68.632507%, 56.274414%)" offset="0.679688"/><stop stop-opacity="1" stop-color="rgb(8.746338%, 68.521118%, 56.626892%)" offset="0.683594"/><stop stop-opacity="1" stop-color="rgb(8.638%, 68.411255%, 56.980896%)" offset="0.6875"/><stop stop-opacity="1" stop-color="rgb(8.529663%, 68.299866%, 57.333374%)" offset="0.691406"/><stop stop-opacity="1" stop-color="rgb(8.421326%, 68.188477%, 57.687378%)" offset="0.695312"/><stop stop-opacity="1" stop-color="rgb(8.311462%, 68.077087%, 58.039856%)" offset="0.699219"/><stop stop-opacity="1" stop-color="rgb(8.203125%, 67.967224%, 58.39386%)" offset="0.703125"/><stop stop-opacity="1" stop-color="rgb(8.094788%, 67.855835%, 58.747864%)" offset="0.707031"/><stop stop-opacity="1" stop-color="rgb(7.98645%, 67.745972%, 59.101868%)" offset="0.710937"/><stop stop-opacity="1" stop-color="rgb(7.878113%, 67.634583%, 59.454346%)" offset="0.714844"/><stop stop-opacity="1" stop-color="rgb(7.769775%, 67.524719%, 59.80835%)" offset="0.71875"/><stop stop-opacity="1" stop-color="rgb(7.659912%, 67.41333%, 60.160828%)" offset="0.722656"/><stop stop-opacity="1" stop-color="rgb(7.551575%, 67.303467%, 60.514832%)" offset="0.726562"/><stop stop-opacity="1" stop-color="rgb(7.443237%, 67.192078%, 60.86731%)" offset="0.730469"/><stop stop-opacity="1" stop-color="rgb(7.3349%, 67.082214%, 61.221313%)" offset="0.734375"/><stop stop-opacity="1" stop-color="rgb(7.226562%, 66.970825%, 61.575317%)" offset="0.738281"/><stop stop-opacity="1" stop-color="rgb(7.118225%, 66.859436%, 61.929321%)" offset="0.742188"/><stop stop-opacity="1" stop-color="rgb(7.008362%, 66.748047%, 62.281799%)" offset="0.746094"/><stop stop-opacity="1" stop-color="rgb(6.900024%, 66.638184%, 62.635803%)" offset="0.75"/><stop stop-opacity="1" stop-color="rgb(6.791687%, 66.526794%, 62.988281%)" offset="0.753906"/><stop stop-opacity="1" stop-color="rgb(6.68335%, 66.416931%, 63.342285%)" offset="0.757812"/><stop stop-opacity="1" stop-color="rgb(6.575012%, 66.305542%, 63.694763%)" offset="0.761719"/><stop stop-opacity="1" stop-color="rgb(6.466675%, 66.195679%, 64.048767%)" offset="0.765625"/><stop stop-opacity="1" stop-color="rgb(6.356812%, 66.08429%, 64.402771%)" offset="0.769531"/><stop stop-opacity="1" stop-color="rgb(6.248474%, 65.974426%, 64.756775%)" offset="0.773438"/><stop stop-opacity="1" stop-color="rgb(6.140137%, 65.863037%, 65.109253%)" offset="0.777344"/><stop stop-opacity="1" stop-color="rgb(6.031799%, 65.753174%, 65.463257%)" offset="0.78125"/><stop stop-opacity="1" stop-color="rgb(5.923462%, 65.641785%, 65.815735%)" offset="0.785156"/><stop stop-opacity="1" stop-color="rgb(5.815125%, 65.530396%, 66.169739%)" offset="0.789062"/><stop stop-opacity="1" stop-color="rgb(5.705261%, 65.419006%, 66.522217%)" offset="0.792969"/><stop stop-opacity="1" stop-color="rgb(5.596924%, 65.309143%, 66.876221%)" offset="0.796875"/><stop stop-opacity="1" stop-color="rgb(5.488586%, 65.197754%, 67.230225%)" offset="0.800781"/><stop stop-opacity="1" stop-color="rgb(5.380249%, 65.087891%, 67.584229%)" offset="0.804688"/><stop stop-opacity="1" stop-color="rgb(5.271912%, 64.976501%, 67.936707%)" offset="0.808594"/><stop stop-opacity="1" stop-color="rgb(5.163574%, 64.866638%, 68.29071%)" offset="0.8125"/><stop stop-opacity="1" stop-color="rgb(5.053711%, 64.755249%, 68.643188%)" offset="0.816406"/><stop stop-opacity="1" stop-color="rgb(4.945374%, 64.645386%, 68.997192%)" offset="0.820312"/><stop stop-opacity="1" stop-color="rgb(4.837036%, 64.533997%, 69.351196%)" offset="0.824219"/><stop stop-opacity="1" stop-color="rgb(4.728699%, 64.424133%, 69.7052%)" offset="0.828125"/><stop stop-opacity="1" stop-color="rgb(4.620361%, 64.312744%, 70.057678%)" offset="0.832031"/><stop stop-opacity="1" stop-color="rgb(4.512024%, 64.201355%, 70.411682%)" offset="0.835938"/><stop stop-opacity="1" stop-color="rgb(4.402161%, 64.089966%, 70.76416%)" offset="0.839844"/><stop stop-opacity="1" stop-color="rgb(4.293823%, 63.980103%, 71.118164%)" offset="0.84375"/><stop stop-opacity="1" stop-color="rgb(4.185486%, 63.868713%, 71.470642%)" offset="0.847656"/><stop stop-opacity="1" stop-color="rgb(4.077148%, 63.75885%, 71.824646%)" offset="0.851562"/><stop stop-opacity="1" stop-color="rgb(3.968811%, 63.647461%, 72.17865%)" offset="0.855469"/><stop stop-opacity="1" stop-color="rgb(3.860474%, 63.537598%, 72.532654%)" offset="0.859375"/><stop stop-opacity="1" stop-color="rgb(3.75061%, 63.426208%, 72.885132%)" offset="0.863281"/><stop stop-opacity="1" stop-color="rgb(3.642273%, 63.316345%, 73.239136%)" offset="0.867188"/><stop stop-opacity="1" stop-color="rgb(3.533936%, 63.204956%, 73.591614%)" offset="0.871094"/><stop stop-opacity="1" stop-color="rgb(3.425598%, 63.095093%, 73.945618%)" offset="0.875"/><stop stop-opacity="1" stop-color="rgb(3.317261%, 62.983704%, 74.298096%)" offset="0.878906"/><stop stop-opacity="1" stop-color="rgb(3.208923%, 62.872314%, 74.6521%)" offset="0.882812"/><stop stop-opacity="1" stop-color="rgb(3.09906%, 62.760925%, 75.006104%)" offset="0.886719"/><stop stop-opacity="1" stop-color="rgb(2.990723%, 62.651062%, 75.360107%)" offset="0.890625"/><stop stop-opacity="1" stop-color="rgb(2.882385%, 62.539673%, 75.712585%)" offset="0.894531"/><stop stop-opacity="1" stop-color="rgb(2.774048%, 62.42981%, 76.066589%)" offset="0.898438"/><stop stop-opacity="1" stop-color="rgb(2.66571%, 62.31842%, 76.419067%)" offset="0.902344"/><stop stop-opacity="1" stop-color="rgb(2.557373%, 62.208557%, 76.773071%)" offset="0.90625"/><stop stop-opacity="1" stop-color="rgb(2.449036%, 62.097168%, 77.125549%)" offset="0.910156"/><stop stop-opacity="1" stop-color="rgb(2.340698%, 61.987305%, 77.479553%)" offset="0.914062"/><stop stop-opacity="1" stop-color="rgb(2.230835%, 61.875916%, 77.833557%)" offset="0.917969"/><stop stop-opacity="1" stop-color="rgb(2.122498%, 61.764526%, 78.187561%)" offset="0.921875"/><stop stop-opacity="1" stop-color="rgb(2.01416%, 61.653137%, 78.540039%)" offset="0.925781"/><stop stop-opacity="1" stop-color="rgb(1.905823%, 61.543274%, 78.894043%)" offset="0.929688"/><stop stop-opacity="1" stop-color="rgb(1.797485%, 61.431885%, 79.246521%)" offset="0.933594"/><stop stop-opacity="1" stop-color="rgb(1.689148%, 61.322021%, 79.600525%)" offset="0.9375"/><stop stop-opacity="1" stop-color="rgb(1.579285%, 61.210632%, 79.953003%)" offset="0.941406"/><stop stop-opacity="1" stop-color="rgb(1.470947%, 61.100769%, 80.307007%)" offset="0.945312"/><stop stop-opacity="1" stop-color="rgb(1.36261%, 60.98938%, 80.661011%)" offset="0.949219"/><stop stop-opacity="1" stop-color="rgb(1.254272%, 60.879517%, 81.015015%)" offset="0.953125"/><stop stop-opacity="1" stop-color="rgb(1.145935%, 60.768127%, 81.367493%)" offset="0.957031"/><stop stop-opacity="1" stop-color="rgb(1.037598%, 60.658264%, 81.721497%)" offset="0.960938"/><stop stop-opacity="1" stop-color="rgb(0.927734%, 60.546875%, 82.073975%)" offset="0.964844"/><stop stop-opacity="1" stop-color="rgb(0.819397%, 60.435486%, 82.427979%)" offset="0.96875"/><stop stop-opacity="1" stop-color="rgb(0.71106%, 60.324097%, 82.780457%)" offset="0.972656"/><stop stop-opacity="1" stop-color="rgb(0.602722%, 60.214233%, 83.13446%)" offset="0.976563"/><stop stop-opacity="1" stop-color="rgb(0.494385%, 60.102844%, 83.488464%)" offset="0.980469"/><stop stop-opacity="1" stop-color="rgb(0.386047%, 59.992981%, 83.842468%)" offset="0.984375"/><stop stop-opacity="1" stop-color="rgb(0.276184%, 59.881592%, 84.194946%)" offset="0.988281"/><stop stop-opacity="1" stop-color="rgb(0.167847%, 59.771729%, 84.54895%)" offset="0.992188"/><stop stop-opacity="1" stop-color="rgb(0.0839233%, 59.684753%, 84.823608%)" offset="0.996094"/><stop stop-opacity="1" stop-color="rgb(0%, 59.599304%, 85.099792%)" offset="1"/></linearGradient></defs><rect x="-37.5" width="450" fill="#ffffff" y="-37.499999" height="449.999989" fill-opacity="1"/><rect x="-37.5" width="450" fill="#000924" y="-37.499999" height="449.999989" fill-opacity="1"/><g clip-path="url(#8689704b16)"><g clip-path="url(#768ac432c5)"><path fill="url(#875e7eae72)" d="M 130.960938 67.40625 L 130.960938 217.402344 L 244.210938 217.402344 L 244.210938 67.40625 Z M 130.960938 67.40625 " fill-rule="nonzero"/></g></g><g fill="#d9d9d9" fill-opacity="1"><g transform="translate(64.933816, 267.789082)"><g><path d="M 3.3125 0 L 3.3125 -30.9375 L 10.84375 -30.9375 L 10.84375 0 Z M 3.3125 0 "/></g></g></g><g fill="#d9d9d9" fill-opacity="1"><g transform="translate(77.979134, 267.789082)"><g><path d="M 10.84375 -24.59375 L 10.84375 -20.984375 C 12.394531 -23.566406 14.878906 -24.859375 18.296875 -24.859375 C 21.117188 -24.859375 23.398438 -23.914062 25.140625 -22.03125 C 26.890625 -20.15625 27.765625 -17.601562 27.765625 -14.375 L 27.765625 0 L 20.28125 0 L 20.28125 -13.359375 C 20.28125 -14.941406 19.859375 -16.164062 19.015625 -17.03125 C 18.179688 -17.90625 17.03125 -18.34375 15.5625 -18.34375 C 14.09375 -18.34375 12.9375 -17.90625 12.09375 -17.03125 C 11.257812 -16.164062 10.84375 -14.941406 10.84375 -13.359375 L 10.84375 0 L 3.3125 0 L 3.3125 -24.59375 Z M 10.84375 -24.59375 "/></g></g></g><g fill="#d9d9d9" fill-opacity="1"><g transform="translate(107.728129, 267.789082)"><g><path d="M 10.84375 -24.59375 L 10.84375 -20.984375 C 12.394531 -23.566406 14.878906 -24.859375 18.296875 -24.859375 C 21.117188 -24.859375 23.398438 -23.914062 25.140625 -22.03125 C 26.890625 -20.15625 27.765625 -17.601562 27.765625 -14.375 L 27.765625 0 L 20.28125 0 L 20.28125 -13.359375 C 20.28125 -14.941406 19.859375 -16.164062 19.015625 -17.03125 C 18.179688 -17.90625 17.03125 -18.34375 15.5625 -18.34375 C 14.09375 -18.34375 12.9375 -17.90625 12.09375 -17.03125 C 11.257812 -16.164062 10.84375 -14.941406 10.84375 -13.359375 L 10.84375 0 L 3.3125 0 L 3.3125 -24.59375 Z M 10.84375 -24.59375 "/></g></g></g><g fill="#d9d9d9" fill-opacity="1"><g transform="translate(137.47713, 267.789082)"><g><path d="M 18.078125 -7.703125 C 19.078125 -8.765625 19.578125 -10.296875 19.578125 -12.296875 C 19.578125 -14.296875 19.0625 -15.816406 18.03125 -16.859375 C 17 -17.898438 15.773438 -18.421875 14.359375 -18.421875 C 12.953125 -18.421875 11.742188 -17.898438 10.734375 -16.859375 C 9.722656 -15.816406 9.21875 -14.296875 9.21875 -12.296875 C 9.21875 -10.296875 9.738281 -8.765625 10.78125 -7.703125 C 11.820312 -6.648438 13.046875 -6.125 14.453125 -6.125 C 15.867188 -6.125 17.078125 -6.648438 18.078125 -7.703125 Z M 5.265625 -3.171875 C 2.785156 -5.492188 1.546875 -8.550781 1.546875 -12.34375 C 1.546875 -16.132812 2.78125 -19.164062 5.25 -21.4375 C 7.71875 -23.71875 10.769531 -24.859375 14.40625 -24.859375 C 18.050781 -24.859375 21.097656 -23.71875 23.546875 -21.4375 C 26.003906 -19.164062 27.234375 -16.132812 27.234375 -12.34375 C 27.234375 -8.550781 26.015625 -5.492188 23.578125 -3.171875 C 21.140625 -0.847656 18.097656 0.3125 14.453125 0.3125 C 10.804688 0.3125 7.742188 -0.847656 5.265625 -3.171875 Z M 5.265625 -3.171875 "/></g></g></g><g fill="#d9d9d9" fill-opacity="1"><g transform="translate(165.154697, 267.789082)"><g><path d="M 0.171875 -24.59375 L 8.203125 -24.59375 L 13.796875 -6.296875 L 19.390625 -24.59375 L 27.421875 -24.59375 L 18.6875 0 L 8.90625 0 Z M 0.171875 -24.59375 "/></g></g></g><g fill="#d9d9d9" fill-opacity="1"><g transform="translate(191.642291, 267.789082)"><g><path d="M 18.28125 -7.796875 C 19.375 -8.859375 19.921875 -10.359375 19.921875 -12.296875 C 19.921875 -14.234375 19.375 -15.722656 18.28125 -16.765625 C 17.195312 -17.816406 15.953125 -18.34375 14.546875 -18.34375 C 13.140625 -18.34375 11.890625 -17.8125 10.796875 -16.75 C 9.710938 -15.6875 9.171875 -14.1875 9.171875 -12.25 C 9.171875 -10.3125 9.710938 -8.820312 10.796875 -7.78125 C 11.890625 -6.738281 13.140625 -6.21875 14.546875 -6.21875 C 15.953125 -6.21875 17.195312 -6.742188 18.28125 -7.796875 Z M 4.75 -3.21875 C 2.582031 -5.570312 1.5 -8.582031 1.5 -12.25 C 1.5 -15.925781 2.582031 -18.945312 4.75 -21.3125 C 6.925781 -23.675781 9.578125 -24.859375 12.703125 -24.859375 C 15.835938 -24.859375 18.242188 -23.695312 19.921875 -21.375 L 19.921875 -24.59375 L 27.453125 -24.59375 L 27.453125 0 L 19.921875 0 L 19.921875 -3.578125 C 18.097656 -0.984375 15.65625 0.3125 12.59375 0.3125 C 9.539062 0.3125 6.925781 -0.863281 4.75 -3.21875 Z M 4.75 -3.21875 "/></g></g></g><g fill="#d9d9d9" fill-opacity="1"><g transform="translate(221.303144, 267.789082)"><g><path d="M 13.75 -6.390625 L 16.4375 -6.390625 L 16.4375 0 L 12.609375 0 C 9.847656 0 7.707031 -0.609375 6.1875 -1.828125 C 4.675781 -3.046875 3.921875 -5.140625 3.921875 -8.109375 L 3.921875 -18.34375 L 1.625 -18.34375 L 1.625 -24.59375 L 3.921875 -24.59375 L 3.921875 -30.59375 L 11.453125 -30.59375 L 11.453125 -24.59375 L 16.390625 -24.59375 L 16.390625 -18.34375 L 11.453125 -18.34375 L 11.453125 -8.109375 C 11.453125 -6.960938 12.21875 -6.390625 13.75 -6.390625 Z M 13.75 -6.390625 "/></g></g></g><g fill="#d9d9d9" fill-opacity="1"><g transform="translate(238.491325, 267.789082)"><g><path d="M 10.171875 -27.375 C 9.328125 -26.519531 8.285156 -26.09375 7.046875 -26.09375 C 5.816406 -26.09375 4.773438 -26.519531 3.921875 -27.375 C 3.066406 -28.226562 2.640625 -29.273438 2.640625 -30.515625 C 2.640625 -31.765625 3.066406 -32.816406 3.921875 -33.671875 C 4.773438 -34.523438 5.816406 -34.953125 7.046875 -34.953125 C 8.285156 -34.953125 9.328125 -34.523438 10.171875 -33.671875 C 11.023438 -32.816406 11.453125 -31.765625 11.453125 -30.515625 C 11.453125 -29.273438 11.023438 -28.226562 10.171875 -27.375 Z M 3.3125 0 L 3.3125 -24.59375 L 10.84375 -24.59375 L 10.84375 0 Z M 3.3125 0 "/></g></g></g><g fill="#d9d9d9" fill-opacity="1"><g transform="translate(251.53665, 267.789082)"><g><path d="M 18.078125 -7.703125 C 19.078125 -8.765625 19.578125 -10.296875 19.578125 -12.296875 C 19.578125 -14.296875 19.0625 -15.816406 18.03125 -16.859375 C 17 -17.898438 15.773438 -18.421875 14.359375 -18.421875 C 12.953125 -18.421875 11.742188 -17.898438 10.734375 -16.859375 C 9.722656 -15.816406 9.21875 -14.296875 9.21875 -12.296875 C 9.21875 -10.296875 9.738281 -8.765625 10.78125 -7.703125 C 11.820312 -6.648438 13.046875 -6.125 14.453125 -6.125 C 15.867188 -6.125 17.078125 -6.648438 18.078125 -7.703125 Z M 5.265625 -3.171875 C 2.785156 -5.492188 1.546875 -8.550781 1.546875 -12.34375 C 1.546875 -16.132812 2.78125 -19.164062 5.25 -21.4375 C 7.71875 -23.71875 10.769531 -24.859375 14.40625 -24.859375 C 18.050781 -24.859375 21.097656 -23.71875 23.546875 -21.4375 C 26.003906 -19.164062 27.234375 -16.132812 27.234375 -12.34375 C 27.234375 -8.550781 26.015625 -5.492188 23.578125 -3.171875 C 21.140625 -0.847656 18.097656 0.3125 14.453125 0.3125 C 10.804688 0.3125 7.742188 -0.847656 5.265625 -3.171875 Z M 5.265625 -3.171875 "/></g></g></g><g fill="#d9d9d9" fill-opacity="1"><g transform="translate(279.214217, 267.789082)"><g><path d="M 10.84375 -24.59375 L 10.84375 -20.984375 C 12.394531 -23.566406 14.878906 -24.859375 18.296875 -24.859375 C 21.117188 -24.859375 23.398438 -23.914062 25.140625 -22.03125 C 26.890625 -20.15625 27.765625 -17.601562 27.765625 -14.375 L 27.765625 0 L 20.28125 0 L 20.28125 -13.359375 C 20.28125 -14.941406 19.859375 -16.164062 19.015625 -17.03125 C 18.179688 -17.90625 17.03125 -18.34375 15.5625 -18.34375 C 14.09375 -18.34375 12.9375 -17.90625 12.09375 -17.03125 C 11.257812 -16.164062 10.84375 -14.941406 10.84375 -13.359375 L 10.84375 0 L 3.3125 0 L 3.3125 -24.59375 Z M 10.84375 -24.59375 "/></g></g></g><g fill="#d9d9d9" fill-opacity="1"><g transform="translate(119.238815, 301.306543)"><g><path d="M 4.765625 -2.515625 L 6.234375 -2.515625 C 7.492188 -2.515625 8.484375 -2.898438 9.203125 -3.671875 C 9.929688 -4.453125 10.296875 -5.492188 10.296875 -6.796875 C 10.296875 -8.097656 9.929688 -9.132812 9.203125 -9.90625 C 8.484375 -10.6875 7.492188 -11.078125 6.234375 -11.078125 L 4.765625 -11.078125 Z M 6.234375 -13.59375 C 8.398438 -13.59375 10.179688 -12.960938 11.578125 -11.703125 C 12.972656 -10.441406 13.671875 -8.804688 13.671875 -6.796875 C 13.671875 -4.796875 12.972656 -3.160156 11.578125 -1.890625 C 10.179688 -0.628906 8.398438 0 6.234375 0 L 1.453125 0 L 1.453125 -13.59375 Z M 6.234375 -13.59375 "/></g></g></g><g fill="#d9d9d9" fill-opacity="1"><g transform="translate(135.094119, 301.306543)"><g><path d="M 4.46875 -12.015625 C 4.09375 -11.640625 3.632812 -11.453125 3.09375 -11.453125 C 2.550781 -11.453125 2.09375 -11.640625 1.71875 -12.015625 C 1.34375 -12.390625 1.15625 -12.851562 1.15625 -13.40625 C 1.15625 -13.957031 1.34375 -14.421875 1.71875 -14.796875 C 2.09375 -15.171875 2.550781 -15.359375 3.09375 -15.359375 C 3.632812 -15.359375 4.09375 -15.171875 4.46875 -14.796875 C 4.84375 -14.421875 5.03125 -13.957031 5.03125 -13.40625 C 5.03125 -12.851562 4.84375 -12.390625 4.46875 -12.015625 Z M 1.453125 0 L 1.453125 -10.796875 L 4.765625 -10.796875 L 4.765625 0 Z M 1.453125 0 "/></g></g></g><g fill="#d9d9d9" fill-opacity="1"><g transform="translate(142.857622, 301.306543)"><g><path d="M 2.078125 -1.40625 C 1.128906 -2.445312 0.65625 -3.769531 0.65625 -5.375 C 0.65625 -6.988281 1.128906 -8.316406 2.078125 -9.359375 C 3.035156 -10.398438 4.203125 -10.921875 5.578125 -10.921875 C 6.953125 -10.921875 8.007812 -10.410156 8.75 -9.390625 L 8.75 -10.796875 L 12.0625 -10.796875 L 12.0625 -0.0625 C 12.0625 1.445312 11.648438 2.707031 10.828125 3.71875 C 10.410156 4.226562 9.84375 4.625 9.125 4.90625 C 8.40625 5.195312 7.578125 5.34375 6.640625 5.34375 C 4.984375 5.34375 3.671875 5.003906 2.703125 4.328125 C 1.742188 3.660156 1.195312 2.640625 1.0625 1.265625 L 4.3125 1.265625 C 4.625 2.078125 5.398438 2.484375 6.640625 2.484375 C 7.242188 2.484375 7.742188 2.28125 8.140625 1.875 C 8.546875 1.46875 8.75 0.820312 8.75 -0.0625 L 8.75 -1.5625 C 7.945312 -0.425781 6.875 0.140625 5.53125 0.140625 C 4.1875 0.140625 3.035156 -0.375 2.078125 -1.40625 Z M 8.03125 -3.421875 C 8.507812 -3.890625 8.75 -4.546875 8.75 -5.390625 C 8.75 -6.242188 8.507812 -6.898438 8.03125 -7.359375 C 7.550781 -7.816406 7 -8.046875 6.375 -8.046875 C 5.757812 -8.046875 5.210938 -7.8125 4.734375 -7.34375 C 4.265625 -6.882812 4.03125 -6.226562 4.03125 -5.375 C 4.03125 -4.53125 4.265625 -3.878906 4.734375 -3.421875 C 5.210938 -2.960938 5.757812 -2.734375 6.375 -2.734375 C 7 -2.734375 7.550781 -2.960938 8.03125 -3.421875 Z M 8.03125 -3.421875 "/></g></g></g><g fill="#d9d9d9" fill-opacity="1"><g transform="translate(157.919238, 301.306543)"><g><path d="M 4.46875 -12.015625 C 4.09375 -11.640625 3.632812 -11.453125 3.09375 -11.453125 C 2.550781 -11.453125 2.09375 -11.640625 1.71875 -12.015625 C 1.34375 -12.390625 1.15625 -12.851562 1.15625 -13.40625 C 1.15625 -13.957031 1.34375 -14.421875 1.71875 -14.796875 C 2.09375 -15.171875 2.550781 -15.359375 3.09375 -15.359375 C 3.632812 -15.359375 4.09375 -15.171875 4.46875 -14.796875 C 4.84375 -14.421875 5.03125 -13.957031 5.03125 -13.40625 C 5.03125 -12.851562 4.84375 -12.390625 4.46875 -12.015625 Z M 1.453125 0 L 1.453125 -10.796875 L 4.765625 -10.796875 L 4.765625 0 Z M 1.453125 0 "/></g></g></g><g fill="#d9d9d9" fill-opacity="1"><g transform="translate(165.68274, 301.306543)"><g><path d="M 6.046875 -2.8125 L 7.21875 -2.8125 L 7.21875 0 L 5.53125 0 C 4.320312 0 3.382812 -0.265625 2.71875 -0.796875 C 2.050781 -1.335938 1.71875 -2.257812 1.71875 -3.5625 L 1.71875 -8.046875 L 0.71875 -8.046875 L 0.71875 -10.796875 L 1.71875 -10.796875 L 1.71875 -13.4375 L 5.03125 -13.4375 L 5.03125 -10.796875 L 7.203125 -10.796875 L 7.203125 -8.046875 L 5.03125 -8.046875 L 5.03125 -3.5625 C 5.03125 -3.0625 5.367188 -2.8125 6.046875 -2.8125 Z M 6.046875 -2.8125 "/></g></g></g><g fill="#d9d9d9" fill-opacity="1"><g transform="translate(175.265937, 301.306543)"><g><path d="M 8.03125 -3.421875 C 8.507812 -3.890625 8.75 -4.546875 8.75 -5.390625 C 8.75 -6.242188 8.507812 -6.898438 8.03125 -7.359375 C 7.550781 -7.816406 7 -8.046875 6.375 -8.046875 C 5.757812 -8.046875 5.210938 -7.8125 4.734375 -7.34375 C 4.265625 -6.882812 4.03125 -6.226562 4.03125 -5.375 C 4.03125 -4.53125 4.265625 -3.878906 4.734375 -3.421875 C 5.210938 -2.960938 5.757812 -2.734375 6.375 -2.734375 C 7 -2.734375 7.550781 -2.960938 8.03125 -3.421875 Z M 2.078125 -1.40625 C 1.128906 -2.445312 0.65625 -3.769531 0.65625 -5.375 C 0.65625 -6.988281 1.128906 -8.316406 2.078125 -9.359375 C 3.035156 -10.398438 4.203125 -10.921875 5.578125 -10.921875 C 6.953125 -10.921875 8.007812 -10.410156 8.75 -9.390625 L 8.75 -10.796875 L 12.0625 -10.796875 L 12.0625 0 L 8.75 0 L 8.75 -1.5625 C 7.945312 -0.425781 6.875 0.140625 5.53125 0.140625 C 4.1875 0.140625 3.035156 -0.375 2.078125 -1.40625 Z M 2.078125 -1.40625 "/></g></g></g><g fill="#d9d9d9" fill-opacity="1"><g transform="translate(190.32755, 301.306543)"><g><path d="M 1.453125 0 L 1.453125 -14.328125 L 4.765625 -14.328125 L 4.765625 0 Z M 1.453125 0 "/></g></g></g><g fill="#d9d9d9" fill-opacity="1"><g transform="translate(198.091052, 301.306543)"><g/></g></g><g fill="#d9d9d9" fill-opacity="1"><g transform="translate(205.448037, 301.306543)"><g><path d="M 8.765625 -3.421875 C 9.242188 -3.878906 9.484375 -4.53125 9.484375 -5.375 C 9.484375 -6.226562 9.242188 -6.882812 8.765625 -7.34375 C 8.285156 -7.8125 7.734375 -8.046875 7.109375 -8.046875 C 6.492188 -8.046875 5.945312 -7.816406 5.46875 -7.359375 C 5 -6.898438 4.765625 -6.242188 4.765625 -5.390625 C 4.765625 -4.546875 5 -3.890625 5.46875 -3.421875 C 5.945312 -2.960938 6.492188 -2.734375 7.109375 -2.734375 C 7.734375 -2.734375 8.285156 -2.960938 8.765625 -3.421875 Z M 4.765625 -9.390625 C 5.492188 -10.410156 6.546875 -10.921875 7.921875 -10.921875 C 9.296875 -10.921875 10.460938 -10.398438 11.421875 -9.359375 C 12.378906 -8.316406 12.859375 -6.988281 12.859375 -5.375 C 12.859375 -3.769531 12.378906 -2.445312 11.421875 -1.40625 C 10.460938 -0.375 9.304688 0.140625 7.953125 0.140625 C 6.597656 0.140625 5.535156 -0.425781 4.765625 -1.5625 L 4.765625 5.15625 L 1.453125 5.15625 L 1.453125 -10.796875 L 4.765625 -10.796875 Z M 4.765625 -9.390625 "/></g></g></g><g fill="#d9d9d9" fill-opacity="1"><g transform="translate(220.509651, 301.306543)"><g><path d="M 1.453125 0 L 1.453125 -14.328125 L 4.765625 -14.328125 L 4.765625 0 Z M 1.453125 0 "/></g></g></g><g fill="#d9d9d9" fill-opacity="1"><g transform="translate(228.273158, 301.306543)"><g><path d="M 8.03125 -3.421875 C 8.507812 -3.890625 8.75 -4.546875 8.75 -5.390625 C 8.75 -6.242188 8.507812 -6.898438 8.03125 -7.359375 C 7.550781 -7.816406 7 -8.046875 6.375 -8.046875 C 5.757812 -8.046875 5.210938 -7.8125 4.734375 -7.34375 C 4.265625 -6.882812 4.03125 -6.226562 4.03125 -5.375 C 4.03125 -4.53125 4.265625 -3.878906 4.734375 -3.421875 C 5.210938 -2.960938 5.757812 -2.734375 6.375 -2.734375 C 7 -2.734375 7.550781 -2.960938 8.03125 -3.421875 Z M 2.078125 -1.40625 C 1.128906 -2.445312 0.65625 -3.769531 0.65625 -5.375 C 0.65625 -6.988281 1.128906 -8.316406 2.078125 -9.359375 C 3.035156 -10.398438 4.203125 -10.921875 5.578125 -10.921875 C 6.953125 -10.921875 8.007812 -10.410156 8.75 -9.390625 L 8.75 -10.796875 L 12.0625 -10.796875 L 12.0625 0 L 8.75 0 L 8.75 -1.5625 C 7.945312 -0.425781 6.875 0.140625 5.53125 0.140625 C 4.1875 0.140625 3.035156 -0.375 2.078125 -1.40625 Z M 2.078125 -1.40625 "/></g></g></g><g fill="#d9d9d9" fill-opacity="1"><g transform="translate(243.334777, 301.306543)"><g><path d="M 4.28125 -0.21875 L 0.078125 -10.796875 L 3.828125 -10.796875 L 6.234375 -3.734375 L 8.859375 -10.796875 L 12.328125 -10.796875 L 5.4375 5.15625 L 1.96875 5.15625 Z M 4.28125 -0.21875 "/></g></g></g></svg>